<svg id="visual" viewBox="0 0 960 540" width="960" height="540" xmlns="http://www.w3.org/2000/svg" xmlns:xlink="http://www.w3.org/1999/xlink" version="1.1"><rect width="960" height="540" fill="#001C6E"></rect><g><g transform="translate(559 8)"><path d="M0 -124L97 -77.3L120.9 27.6L53.8 111.7L-53.8 111.7L-120.9 27.6L-97 -77.3Z" fill="#4FACF7"></path></g><g transform="translate(16 297)"><path d="M0 -104L81.3 -64.8L101.4 23.1L45.1 93.7L-45.1 93.7L-101.4 23.1L-81.3 -64.8Z" fill="#4FACF7"></path></g><g transform="translate(609 322)"><path d="M0 -109L85.2 -68L106.3 24.3L47.3 98.2L-47.3 98.2L-106.3 24.3L-85.2 -68Z" fill="#4FACF7"></path></g><g transform="translate(869 343)"><path d="M0 -89L69.6 -55.5L86.8 19.8L38.6 80.2L-38.6 80.2L-86.8 19.8L-69.6 -55.5Z" fill="#4FACF7"></path></g><g transform="translate(951 3)"><path d="M0 -37L28.9 -23.1L36.1 8.2L16.1 33.3L-16.1 33.3L-36.1 8.2L-28.9 -23.1Z" fill="#4FACF7"></path></g><g transform="translate(280 10)"><path d="M0 -25L19.5 -15.6L24.4 5.6L10.8 22.5L-10.8 22.5L-24.4 5.6L-19.5 -15.6Z" fill="#4FACF7"></path></g><g transform="translate(169 512)"><path d="M0 -42L32.8 -26.2L40.9 9.3L18.2 37.8L-18.2 37.8L-40.9 9.3L-32.8 -26.2Z" fill="#4FACF7"></path></g><g transform="translate(449 525)"><path d="M0 -94L73.5 -58.6L91.6 20.9L40.8 84.7L-40.8 84.7L-91.6 20.9L-73.5 -58.6Z" fill="#4FACF7"></path></g><g transform="translate(369 260)"><path d="M0 -101L79 -63L98.5 22.5L43.8 91L-43.8 91L-98.5 22.5L-79 -63Z" fill="#4FACF7"></path></g></g></svg>